<svg t="1728505229814" class="icon sign-up-icon" viewBox="0 0 1024 1024" version="1.1" xmlns="http://www.w3.org/2000/svg" p-id="1462" width="200" height="200"><path d="M534.8864 68.7104a51.2 51.2 0 0 1 22.8864 22.8864l429.1584 858.3168A51.2 51.2 0 0 1 941.1584 1024H82.8416a51.2 51.2 0 0 1-45.7728-74.0864L466.2272 91.5968a51.2 51.2 0 0 1 68.6592-22.8864z m-23.296 662.6304a42.1376 42.1376 0 0 0-31.3344 12.288 39.2192 39.2192 0 0 0-13.5168 31.3344 40.96 40.96 0 0 0 13.5168 31.3344 42.6496 42.6496 0 0 0 31.3344 12.9024c12.288 0 23.3472-4.3008 32.5632-12.288a43.0592 43.0592 0 0 0 12.9024-31.9488 40.7552 40.7552 0 0 0-12.9024-31.3344c-8.6016-8.6016-19.6608-12.288-32.5632-12.288z m38.7072-350.8224h-76.8l14.1312 314.5728h48.5376l14.1312-314.5728z" fill="#F56A6A" p-id="1463"></path></svg>